<svg xmlns:xlink="http://www.w3.org/1999/xlink" xmlns="http://www.w3.org/2000/svg" width="312.5" height="265.40046496170794" viewBox="0 0 312.5 265.40046496170794" class="css-1j8o68f"><defs id="SvgjsDefs1001"></defs><g id="SvgjsG1007" featurekey="rootContainer" transform="matrix(1.4161621300959277,0,0,1.4161621300959277,-0.00013041320389498522,0.0007603480182590916)" fill="#323232"><path xmlns="http://www.w3.org/2000/svg" d="M21.82 147.281c5.272 1.563 9.308 1.626 14.18-1.005-4.889-8.717-16.669-12.208-25.518-7.563 2.653 4.857 6.067 7.005 11.338 8.568zM23.738 135.282c-1.784-9.836-11.786-16.971-21.667-15.461.93 5.459 3.46 8.601 7.936 11.794 4.477 3.194 8.267 4.563 13.731 3.667zM3.935 112.956c3.193 4.477 6.334 7.007 11.79 7.939 1.515-9.882-5.618-19.884-15.454-21.674-.9 5.464.473 9.258 3.664 13.735zM12.835 104.681c4.647-8.847 1.16-20.631-7.558-25.522-2.628 4.875-2.57 8.905-1.008 14.179 1.562 5.271 3.707 8.687 8.566 11.343zM193.961 138.195l.863-1.716c.231-.469.476-.93.693-1.402l.63-1.423c.412-.949.849-1.881 1.233-2.829.724-1.913 1.507-3.781 2.095-5.691 1.316-3.774 2.224-7.569 3.026-11.259a96.622 96.622 0 0 0 1.801-21.047 93.425 93.425 0 0 0-2.111-17.543c-1.133-5.116-2.446-9.482-3.79-12.962-.614-1.763-1.283-3.284-1.849-4.612-.286-.662-.536-1.281-.791-1.836l-.724-1.494-.986-2.034c-.221-.46-.343-.693-.343-.693l-1.455-2.661-.798-1.455-1.043-1.704-1.216-1.982c-.427-.71-.953-1.419-1.47-2.194-.53-.766-1.071-1.587-1.673-2.425l-1.96-2.582c-.664-.913-1.431-1.805-2.217-2.74-.792-.929-1.579-1.924-2.49-2.866a93.08 93.08 0 0 0-13.025-11.939 96.048 96.048 0 0 0-18.167-10.775 39.276 39.276 0 0 0-2.619-1.132l-2.683-1.093-2.769-.979-1.399-.493-1.428-.434-2.886-.866-2.958-.741-1.493-.369-1.517-.303c-1.015-.197-2.032-.416-3.06-.597C121.257.647 117.01.186 112.674.032c-4.335-.097-8.751.008-13.19.518-4.431.534-8.899 1.302-13.307 2.496-4.398 1.212-8.777 2.676-13.014 4.552-4.221 1.898-8.376 4.029-12.302 6.556-1.011.585-1.939 1.298-2.914 1.942-.965.658-1.935 1.31-2.85 2.039l-2.781 2.137-2.674 2.27c-3.493 3.106-6.822 6.407-9.79 9.998-2.963 3.589-5.697 7.349-8.076 11.292-2.356 3.955-4.439 8.032-6.192 12.201a101.27 101.27 0 0 0-4.248 12.7c-1.05 4.281-1.875 8.556-2.342 12.8-.431 4.243-.702 8.436-.565 12.535l.022 1.533.088 1.521c.062 1.011.125 2.016.188 3.015l.322 2.966c.101.983.214 1.958.384 2.919l.458 2.868c.162.948.382 1.877.568 2.806.208.924.356 1.854.612 2.752l.544 2.089c.169.633.319 1.249.489 1.834l.525 1.671c.34 1.062.626 2.03.917 2.859l.776 2.088c1.533 4.156 3.273 7.194 5.131 9.904.953 1.344 1.994 2.578 3.062 3.834 1.115 1.228 2.344 2.429 3.651 3.72l-1.598-4.901c-.453-1.562-.956-3.021-1.458-4.516-.956-3.013-2.141-6.057-3.542-9.982l-.717-1.97c-.269-.782-.532-1.693-.85-2.694l-.492-1.573c-.158-.551-.297-1.131-.455-1.727l-.512-1.965c-.243-.844-.379-1.72-.575-2.589-.174-.874-.384-1.748-.535-2.639l-.429-2.698a36.364 36.364 0 0 1-.36-2.745l-.304-2.789-.174-2.835-.084-1.43-.02-1.441c-.132-3.855.128-7.797.531-11.787.439-3.991 1.217-8.009 2.202-12.033 1.044-4.011 2.39-7.999 3.99-11.931 1.647-3.914 3.604-7.741 5.812-11.452 2.232-3.7 4.798-7.225 7.575-10.592 2.781-3.369 5.905-6.461 9.179-9.376l2.508-2.13 2.61-2.004c.858-.685 1.769-1.296 2.675-1.914.915-.604 1.784-1.276 2.734-1.824 3.686-2.375 7.585-4.37 11.543-6.154 3.973-1.76 8.08-3.13 12.203-4.27 4.133-1.121 8.325-1.839 12.483-2.343 4.165-.48 8.312-.577 12.383-.489 4.073.145 8.063.578 11.941 1.212.967.17 1.923.377 2.877.562l1.426.283 1.404.348 2.782.695 2.714.815 1.344.406 1.315.465 2.605.918 2.523 1.029c.838.333 1.665.675 2.464 1.064a90.457 90.457 0 0 1 17.093 10.131 87.331 87.331 0 0 1 12.26 11.233c.86.885 1.599 1.823 2.345 2.698.741.879 1.465 1.718 2.089 2.58l1.848 2.431c.568.789 1.077 1.564 1.578 2.286.487.73.985 1.397 1.387 2.067l1.146 1.868.986 1.605.751 1.372 1.373 2.506s.115.219.322.653a1506.739 1506.739 0 0 0 1.609 3.323c.24.522.474 1.106.743 1.729.532 1.25 1.164 2.682 1.739 4.342 1.267 3.275 2.497 7.385 3.562 12.198a87.808 87.808 0 0 1 1.981 16.504 91.077 91.077 0 0 1-1.698 19.795c-.759 3.468-1.607 7.037-2.849 10.582-.55 1.796-1.291 3.548-1.969 5.346-.36.891-.773 1.765-1.16 2.656l-.591 1.336c-.204.443-.435.875-.652 1.316l-1.329 2.644-1.471 2.601c-.474.882-1.019 1.727-1.561 2.579-.552.845-1.054 1.729-1.651 2.553-2.276 3.379-4.882 6.602-7.675 9.722a94.172 94.172 0 0 1-9.256 8.696c-3.364 2.648-6.901 5.143-10.655 7.339-3.772 2.153-7.683 4.121-11.763 5.717-4.085 1.575-8.28 2.894-12.56 3.864a93.54 93.54 0 0 1-12.991 1.878c-4.361.276-8.721.214-13.029-.121-4.311-.342-8.55-1.076-12.691-2.012-4.146-.933-8.146-2.264-12.019-3.731-3.873-1.482-7.542-3.302-11.069-5.213-1.725-1.025-3.469-1.985-5.094-3.099-.816-.55-1.662-1.048-2.443-1.631l-2.002-1.45c-1.134-.782-2.128-1.646-3.1-2.405-.479-.388-.952-.751-1.39-1.12l-1.235-1.091c-.783-.699-1.508-1.311-2.111-1.876l-1.505-1.459c-3.011-2.882-5.306-5.207-7.666-7.31-1.159-1.069-2.286-2.124-3.526-3.175l-3.821-3.46c.645 1.72 1.239 3.333 1.905 4.852.71 1.487 1.412 2.941 2.249 4.36 1.715 2.803 3.778 5.632 6.946 8.729l1.589 1.561c.638.604 1.404 1.259 2.235 2.004l1.311 1.162c.465.394.966.782 1.475 1.195 1.03.809 2.089 1.725 3.292 2.561l2.128 1.541c.832.619 1.729 1.151 2.597 1.735 1.729 1.182 3.582 2.207 5.417 3.294 3.749 2.036 7.651 3.967 11.77 5.544 4.118 1.563 8.373 2.974 12.783 3.968 4.405.997 8.917 1.775 13.505 2.14 4.586.357 9.23.423 13.876.127a99.077 99.077 0 0 0 13.847-2.003c4.563-1.034 9.039-2.439 13.393-4.122 4.351-1.703 8.521-3.799 12.539-6.097 3.998-2.339 7.766-4.995 11.348-7.82a99.799 99.799 0 0 0 9.868-9.274c2.913-3.251 5.625-6.613 8.011-10.127 3.417.999 6.662.67 10.595-.496 5.271-1.563 8.686-3.71 11.339-8.568-5.06-2.659-11.078-2.644-16.221-.519z" fill="#323232"></path><path xmlns="http://www.w3.org/2000/svg" d="M196.928 135.282c5.464.896 9.255-.473 13.732-3.666 4.475-3.193 7.005-6.335 7.936-11.794-9.882-1.511-19.884 5.624-21.668 15.46zM204.942 120.895c5.456-.932 8.598-3.462 11.791-7.939 3.19-4.477 4.563-8.272 3.663-13.735-9.836 1.79-16.969 11.792-15.454 21.674zM216.398 93.338c1.562-5.274 1.62-9.305-1.008-14.179-8.718 4.892-12.205 16.675-7.558 25.522 4.858-2.656 7.004-6.072 8.566-11.343z" fill="#323232"></path></g><g id="SvgjsG1008" featurekey="nameFeature-0" transform="matrix(2.8054593358545055,0,0,2.8054593358545055,56.10211526469149,41.65490861741466)" fill="#323232"><path d="M6.04 29.36 c1.24 -0.12 2.36 -0.2 3.44 -0.28 c1.08 -0.04 2.16 -0.04 3.28 -0.08 c0.04 -0.28 0.08 -0.52 0.08 -0.76 c0.12 -5.24 0.2 -10.52 0.32 -15.76 c0 -0.88 0.24 -1.16 1.12 -1.24 c0.4 -0.04 0.84 -0.04 1.24 0 c0.76 0.12 1 0.4 1 1.16 l0 2.48 c-0.08 5.52 -0.2 11.08 -0.28 16.6 c0 1.68 0 3.32 0.04 4.96 l0 0.52 c0 0.96 0 1.24 -1.28 1.44 c-0.32 0.08 -0.72 0.04 -1.04 -0.04 c-0.8 -0.16 -0.96 -0.36 -0.96 -1.2 c-0.08 -1.72 -0.08 -3.48 -0.12 -5.24 c-0.04 -0.36 0.04 -0.72 -0.12 -1.04 c-1.52 -0.04 -5.8 0.48 -6.84 0.88 c-0.08 0.88 -0.2 1.8 -0.24 2.72 c-0.04 1.36 -0.08 2.72 -0.04 4.08 c0 0.6 -0.24 0.96 -0.76 1.12 c-1.04 0.4 -2.12 0.4 -3.16 -0.04 c-0.44 -0.16 -0.76 -0.48 -0.8 -1 c-0.08 -0.4 -0.16 -0.8 -0.16 -1.16 c-0.08 -2.08 -0.32 -4.16 -0.52 -6.2 c-0.28 -2.44 -0.32 -4.88 -0.24 -7.28 c0.08 -2.48 0.24 -4.96 0.4 -7.4 c0.08 -1.28 0.2 -2.56 0.32 -3.84 c0 -0.36 0.12 -0.72 0.16 -1.08 c0.08 -0.44 0.36 -0.76 0.8 -0.92 c1.08 -0.4 2.16 -0.4 3.24 0 c0.6 0.24 0.84 0.68 0.92 1.24 c0.08 0.8 0.16 1.56 0.24 2.36 c0.24 2.88 0.04 5.8 0 8.68 c0 1.8 -0.04 3.56 -0.08 5.36 c0 0.28 0.04 0.56 0.04 0.96 z M1.64 34.96 c0.04 0 0.08 0.04 0.12 0.04 c-0.08 -2.8 -0.24 -5.64 -0.28 -8.44 c0 -4.2 0.12 -8.44 0.52 -12.64 l0 -0.52 c0 -0.04 -0.04 -0.08 -0.08 -0.08 c0 -0.04 -0.04 -0.04 -0.12 -0.12 c-0.08 0.08 -0.2 0.2 -0.24 0.28 c-0.08 0.4 -0.12 0.8 -0.16 1.16 c-0.08 1.44 -0.16 2.88 -0.24 4.28 c-0.04 1.2 -0.04 2.36 -0.12 3.56 c-0.12 2.16 -0.16 4.36 0.04 6.52 c0.16 2 0.36 3.96 0.56 5.96 z M15.64 15.04 c-0.12 0.76 -0.28 1.36 -0.32 2 c-0.08 1.8 -0.16 3.56 -0.24 5.32 c0 0.48 0 0.68 0.08 0.76 c0.04 0.04 0.08 0.12 0.2 0.08 c0.16 0 0.16 0 0.16 -0.16 c0.04 -2.64 0.08 -5.24 0.12 -8 z M15.36 23.64 c-0.24 0.04 -0.24 0.88 0.12 0.84 c0.32 0 0.04 -0.92 -0.12 -0.84 z M24.793 14.399999999999999 c-0.04 0.2 -0.08 0.32 -0.08 0.48 c0 5.12 0 10.2 0.04 15.32 c0 0.08 0.08 0.2 0.12 0.36 c0.64 -0.04 1.28 -0.16 1.92 -0.24 s1.32 -0.12 2 -0.12 c0.32 0 0.68 0.16 0.96 0.32 c0.4 0.2 0.4 0.64 0 0.88 c-0.4 0.2 -0.84 0.32 -1.28 0.4 c-0.84 0.2 -1.72 0.32 -2.56 0.48 c-0.36 0.08 -0.68 0.16 -1.04 0.28 c-0.04 1.44 0.04 2.88 0.28 4.28 c0.04 0.16 0.12 0.32 0.16 0.44 c0.16 0.48 0.48 0.76 1 0.8 c0.56 0 1.12 0.04 1.68 0 c1.04 -0.08 2.04 -0.16 3.04 -0.24 c0.48 -0.04 0.92 0 1.36 0.04 c0.2 0 0.4 0.08 0.56 0.12 c0.44 0.12 0.72 0.44 0.68 0.68 c-0.04 0.32 -0.32 0.48 -0.6 0.6 c-0.32 0.08 -0.68 0.2 -1 0.24 c-1.56 0.12 -3.08 0.28 -4.64 0.4 c-1.08 0.08 -2.2 0 -3.28 -0.2 c-0.48 -0.08 -0.96 -0.24 -1.4 -0.4 c-0.8 -0.36 -1.4 -0.96 -1.68 -1.76 c-0.2 -0.6 -0.4 -1.24 -0.48 -1.88 c-0.16 -1.96 -0.32 -3.92 -0.44 -5.88 c-0.2 -3 -0.12 -6.04 -0.04 -9.08 c0.04 -1.6 0.12 -3.24 0.2 -4.88 c0 -0.4 0.04 -0.8 0.04 -1.24 c-0.32 -0.2 -0.6 -0.36 -0.88 -0.56 c-0.24 -0.2 -0.28 -0.6 0.04 -0.76 c0.28 -0.2 0.64 -0.4 1 -0.48 c0.8 -0.2 1.64 -0.36 2.44 -0.44 c2.52 -0.2 5.08 -0.28 7.6 0.16 c0.44 0.08 0.88 0.24 1.24 0.44 c0.48 0.24 0.44 0.76 -0.04 0.96 c-0.36 0.2 -0.84 0.36 -1.28 0.4 c-0.6 0.08 -1.2 0 -1.8 0 l-3.16 0 c-0.24 0 -0.44 0.04 -0.68 0.08 z M21.073 15.239999999999998 c-0.36 0.76 -0.4 1.36 -0.52 6.4 c-0.04 2.12 -0.04 4.24 0 6.36 c0.08 2.12 0.2 4.24 0.6 6.32 c0.04 -0.6 0.04 -1.2 0.04 -1.8 c-0.04 -2.84 -0.2 -5.68 -0.16 -8.48 c0.04 -2.68 0.2 -5.36 0.32 -8.04 c0 -0.2 0 -0.4 -0.04 -0.56 c0 -0.08 -0.16 -0.12 -0.24 -0.2 z M64.586 38.32 c0.52 0.44 0.64 0.92 0.28 1.56 c-0.24 0.4 -0.52 0.8 -0.88 1.08 c-2.12 1.84 -4.36 3.32 -7.04 3.8 c-1.84 0.32 -3.72 0.28 -5.56 -0.4 c-2.72 -1 -4.6 -3 -5.48 -6.12 c-0.4 -1.36 -0.68 -2.8 -1 -4.2 c-0.24 -0.84 -0.36 -1.72 -0.92 -2.4 c-0.36 0.08 -0.28 0.36 -0.28 0.6 c-0.04 1.8 -0.04 3.6 -0.04 5.36 c-0.04 1.48 -0.32 1.88 -1.52 2.12 c-0.96 0.2 -1.92 0.2 -2.84 -0.24 c-0.52 -0.24 -0.8 -0.64 -0.84 -1.24 s-0.04 -1.2 -0.04 -1.8 c-0.04 -5.08 -0.04 -10.16 -0.04 -15.24 c0 -0.4 0 -0.8 0.04 -1.2 c0.04 -0.68 0.32 -1.12 0.88 -1.36 c1.12 -0.48 2.2 -0.48 3.32 0.04 c0.48 0.2 0.8 0.64 0.84 1.2 c0.08 0.56 0.12 1.12 0.16 1.64 c0.04 1.72 0.04 3.4 0.08 5.08 c0 0.36 0.04 0.72 0.04 1.04 c1 0.68 1.88 0.32 2.72 -0.32 c1.52 -1.24 2.36 -2.88 2.44 -5.04 c0.04 -2.04 -0.52 -3.84 -1.72 -5.32 c-1 -1.28 -2.24 -1.92 -3.72 -1.64 c-1.96 0.32 -3.72 1.12 -5.28 2.52 c-0.32 0.28 -0.64 0.64 -0.92 1.04 c-0.52 0.72 -0.8 1.52 -0.64 2.48 c0.16 0.8 -0.04 1.12 -0.68 1.36 c-0.88 0.32 -1.72 0.36 -2.6 0.04 c-1.08 -0.4 -1.6 -1.36 -1.44 -2.64 c0.16 -0.92 0.52 -1.72 1.04 -2.4 c0.68 -0.88 1.48 -1.56 2.32 -2.16 c1.52 -1.08 3.12 -1.8 4.84 -2.24 c2.48 -0.64 4.92 -0.76 7.4 -0.12 c1 0.24 1.92 0.68 2.8 1.32 c2.28 1.64 4.04 4.88 3.48 9.04 c-0.28 2.12 -1.36 3.76 -2.92 4.96 c-0.72 0.56 -1.56 1.04 -2.4 1.56 c0.24 0.44 0.56 0.88 0.76 1.36 c0.44 1 0.84 2.08 1.2 3.12 c0.36 1.12 0.68 2.28 1.04 3.4 c0.44 1.28 1.2 2.32 2.12 3.2 c0.8 0.76 1.72 0.96 2.68 0.44 c1 -0.6 2 -1.2 3 -1.84 c0.32 -0.2 0.6 -0.56 0.84 -0.88 c1.08 -1.28 3.28 -1.52 4.48 -0.56 z M51.306000000000004 16.8 c-0.24 -0.28 -0.6 0.16 -0.36 0.44 c0.6 0.8 1.04 1.68 1.32 2.68 c0.08 0.36 0.16 0.72 0.2 1.08 c0.04 0.32 0.08 0.68 0.08 1 c0 0.4 0.52 0.44 0.52 0 c0 -1.96 -0.6 -3.76 -1.76 -5.2 z M35.466 17.16 c0.28 -0.24 -0.12 -0.68 -0.4 -0.44 c-0.92 0.84 -2.08 1.92 -2.28 3.28 c-0.08 0.4 0.44 0.56 0.52 0.16 c0.2 -1.24 1.32 -2.24 2.16 -3 z M37.666000000000004 15.68 c0.32 -0.2 0.04 -0.72 -0.28 -0.52 c-0.28 0.2 -0.56 0.36 -0.88 0.56 c-0.28 0.2 0 0.72 0.28 0.52 c0.32 -0.16 0.6 -0.36 0.88 -0.56 z M39.626000000000005 35.68 l0 -9.72 c-0.28 0.24 -0.32 0.52 -0.32 0.8 c-0.04 2.96 -0.08 5.88 -0.08 8.8 c0 0.08 0.08 0.2 0.12 0.28 l0.12 0 c0.04 -0.04 0.16 -0.12 0.16 -0.16 z M49.266000000000005 42.36 c0.28 0.24 0.56 -0.32 0.28 -0.56 c-0.48 -0.36 -0.92 -0.84 -1.28 -1.32 l-0.24 -0.36 c-0.04 -0.04 -0.04 -0.04 -0.04 -0.08 c-0.08 -0.12 -0.16 -0.2 -0.2 -0.32 c-0.4 -0.72 -0.72 -1.52 -0.88 -2.4 c-0.04 -0.2 -0.16 -0.28 -0.32 -0.24 l0 -0.04 l0 0.08 c-0.12 0.04 -0.24 0.16 -0.2 0.36 c0.36 2 1.4 3.72 2.88 4.88 z M71.226 40 c0.12 1.56 -0.12 1.88 -1.48 2.28 c-0.92 0.28 -1.84 0.2 -2.76 -0.12 c-0.72 -0.24 -1.16 -0.72 -1.28 -1.64 c-0.16 -1.6 -0.36 -3.2 -0.56 -4.84 c-0.08 -0.64 -0.2 -1.32 -0.28 -2.04 c-2.52 -0.04 -4.92 0.36 -7.4 0.28 c-0.12 0.48 -0.24 0.88 -0.32 1.28 c-0.08 0.44 -0.12 0.92 -0.2 1.4 c-0.08 0.52 -0.36 0.84 -0.76 1 c-1.12 0.52 -2.28 0.52 -3.4 0.04 c-0.56 -0.24 -0.88 -0.76 -0.84 -1.48 c0.04 -1.16 0.08 -2.32 0.24 -3.44 c0.56 -3.64 1.6 -7.12 3.32 -10.28 c0.96 -1.84 2.12 -3.44 3.6 -4.72 c1.76 -1.52 3.76 -1.96 5.88 -1.44 c1.24 0.28 2.16 1.04 2.68 2.28 c0.44 1.04 0.88 2.12 1.08 3.2 c0.56 2.64 1 5.24 1.36 7.88 c0.12 0.76 0.6 1.4 0.52 2.08 s-0.08 1.32 0 2 c0.2 2.08 0.44 4.16 0.6 6.28 z M53.666000000000004 34.28 c0.08 -0.4 0.16 -0.76 0.2 -1.16 c0.08 -0.4 -0.48 -0.6 -0.56 -0.16 c-0.04 0.36 -0.12 0.76 -0.16 1.12 c-0.08 0.44 0.48 0.6 0.52 0.2 z M54.626000000000005 29.04 c1.04 -4.12 2.72 -8.04 5.92 -10.56 c0.32 -0.24 0 -0.8 -0.28 -0.56 c-0.04 0 -0.04 0 -0.08 0.04 c-0.16 0.04 -0.24 0.04 -0.28 0.08 c-0.2 0.24 -0.4 0.44 -0.6 0.68 c-1.08 1.04 -2 2.28 -2.76 3.6 c-0.04 0.08 -0.08 0.12 -0.12 0.2 c-0.72 1.28 -1.24 2.6 -1.68 3.96 c-0.52 1.64 -0.92 3.32 -1.28 5 c-0.04 0.24 0.12 0.4 0.28 0.4 c0.04 0.04 0.12 0.04 0.24 0.04 c0.04 -0.16 0.12 -0.36 0.16 -0.56 c0.16 -0.76 0.32 -1.52 0.48 -2.32 z M64.426 30.16 c0.04 -2.36 -0.84 -8 -1.56 -9.92 c-1.96 1.88 -4.48 7.56 -4.68 10.6 l1.08 0 c1.64 -0.16 3.28 -0.32 4.96 -0.48 c0.04 0 0.12 -0.12 0.2 -0.2 z M69.506 34.2 c0 0.08 0.16 0.16 0.36 0.32 l0 -0.32 c0.12 -0.04 0.24 -0.2 0.2 -0.36 c-0.24 -2.08 -0.48 -4.12 -0.72 -6.16 c-0.04 -0.4 -0.64 -0.4 -0.6 0 c0.2 1.72 0.44 3.44 0.64 5.12 c0.04 0.48 0.08 0.92 0.12 1.4 z M69.866 37.24 c0.04 0.44 0.6 0.44 0.56 0 s-0.08 -0.88 -0.16 -1.36 c-0.04 -0.4 -0.6 -0.4 -0.56 0 c0.04 0.48 0.08 0.92 0.16 1.36 z" fill="#323232"></path></g><g id="SvgjsG1009" featurekey="sloganFeature-0" transform="matrix(1.0312308052751478,0,0,1.0312308052751478,77.96876821126652,172.96759551915895)" fill="#0D7377"><path d="M9.52 5.460000000000001 c0.06 0.28 0.02 13.6 0.02 13.94 c0 0.6 -0.22 0.58 -0.62 0.58 c-0.6 0 -1.44 0.1 -1.62 -0.1 c-0.16 -0.14 -3.12 -7.28 -3.54 -8.18 c-0.04 -0.08 -0.14 -0.28 -0.22 -0.24 c-0.1 0.04 -0.06 0.18 -0.06 0.26 c-0.02 0.7 0.1 6.74 0.1 7.7 c0 0.48 -0.02 0.56 -0.42 0.56 l-1 0 c-0.26 0 -0.58 -0.02 -0.84 0.02 c-0.2 0 -0.3 -0.06 -0.32 -0.26 l0 -1.58 c0.04 -1.68 0 -11.64 0 -12.38 c0 -0.64 0.18 -0.76 0.82 -0.76 c0.44 -0.02 0.88 -0.02 1.32 -0.02 c0.14 0 0.22 0.02 0.3 0.2 c0.54 1.26 2.84 7.04 3.2 7.74 c0.06 0.14 0.28 0.7 0.4 0.76 l0.02 0 c0.08 -0.08 0.06 -0.48 0.06 -0.6 c0 -0.3 -0.16 -7.32 -0.16 -7.46 c0 -0.2 -0.06 -0.38 0.04 -0.52 c0.06 -0.08 0.32 -0.1 0.42 -0.12 c0.56 -0.04 1.22 0.02 1.78 0 c0.28 0 0.26 0.2 0.32 0.46 z M14.513 19.84 c0.06 0.02 0.24 0.02 0.42 0.02 c0.4 0 0.52 -1.44 0.56 -1.74 c0.02 -0.24 0.08 -0.26 0.28 -0.3 c1 -0.12 1.5 -0.04 2.5 -0.02 c0.22 0 0.34 0.1 0.4 0.28 l0.14 0.46 c0.12 0.34 0.22 0.76 0.34 1.1 c0.08 0.24 0.1 0.22 0.34 0.22 c0.32 0 1.48 0 1.82 -0.02 c0.46 0 0.14 -0.94 0.08 -1.1 c-0.18 -0.56 -0.22 -1.14 -0.4 -1.7 c-0.08 -0.24 -2.36 -11.06 -2.46 -11.66 c-0.14 -0.36 -0.02 -0.38 -0.34 -0.38 c-0.68 0 -1.4 0.04 -2.1 0 c-0.28 0 -0.26 0.08 -0.3 0.38 c-0.04 0.28 -0.76 3.46 -1.04 4.78 c-0.36 1.66 -0.68 3.26 -1.08 4.9 c-0.14 0.58 -1.1 4.76 -0.98 4.78 c0.06 0.04 0.16 0.02 0.24 0.02 c0.5 0 0.96 0 1.58 -0.02 z M17.133 15.3 l-0.42 0 c-0.56 0 -0.58 0 -0.44 -0.58 c0.1 -0.44 0.64 -2.82 0.76 -3.4 c0.02 -0.04 0.06 -0.08 0.08 -0.08 c0.04 0 0.08 0.04 0.1 0.06 c0.08 0.24 0.16 0.84 0.24 1.08 c0.18 0.76 0.3 1.4 0.48 2.22 c0.18 0.72 0.1 0.72 -0.26 0.72 c-0.18 0 -0.36 -0.02 -0.54 -0.02 z M27.206 17.82 c0.02 0.62 0.02 1.24 0.04 1.86 c0 0.28 0.02 0.32 0.3 0.32 l1.8 0 c0.38 0 0.3 -0.64 0.28 -0.98 l0.06 -11.2 c0 -0.3 0.1 -0.4 0.5 -0.4 l1.76 0 c0.42 0 0.32 -0.72 0.32 -1.22 c0 -0.44 0.16 -1.2 -0.32 -1.2 c-0.34 0 -3.6 0 -4.94 0.02 c-0.66 0 -1.2 -0.02 -1.86 -0.02 c-0.5 0 -0.48 0.4 -0.48 1.28 c0 0.56 -0.02 1.12 0.46 1.12 c0.28 0 1.42 0 1.74 0.02 c0.2 0 0.34 0.06 0.38 0.28 c0 0.06 0.02 0.12 0.02 0.18 c0 1.44 -0.1 8.14 -0.06 9.94 z M35.399 8.28 c0 2.02 0.02 4.06 0.06 6.06 c0.02 1.22 0 2.6 0.58 3.72 c0.74 1.44 2.38 2.08 3.96 1.98 c1.08 -0.08 2.08 -0.36 2.86 -1.16 c1.32 -1.42 1.06 -3.64 1.08 -5.46 c0.04 -2.62 0.1 -5.06 0.1 -7.7 c0 -0.44 -0.14 -0.68 -0.58 -0.7 c-0.54 -0.02 -1.08 0 -1.62 0.04 c-0.22 0 -0.4 0.2 -0.4 0.44 c0.02 1.92 0.06 3.86 0.04 5.8 c-0.02 1.66 0.2 3.5 -0.42 5.08 c-0.24 0.58 -0.78 1.02 -1.42 1.02 c-1.6 -0.04 -1.54 -1.94 -1.6 -3.06 c-0.12 -2.44 0.06 -4.94 0.12 -7.38 c0 -0.46 0 -0.92 0.02 -1.38 c0.02 -0.24 0.06 -0.54 -0.26 -0.56 l-0.36 0 c-0.5 0.04 -1 -0.02 -1.5 0 c-0.48 0.04 -0.64 0.18 -0.64 0.66 c0 0.86 -0.02 1.74 -0.02 2.6 z M49.632 18.5 c0 -0.52 0 -3.8 0.02 -4.06 c0.02 -0.06 0.06 -0.18 0.14 -0.18 s0.12 0.04 0.14 0.1 c0.8 1.56 1.5 3.12 2.22 4.64 c0.1 0.22 0.32 0.86 0.38 0.92 c0.08 0.12 0.22 0.08 0.34 0.08 l2.2 0.02 c0.26 0 0.32 -0.16 0.26 -0.38 c-0.16 -0.6 -1.3 -2.72 -1.56 -3.24 c-0.18 -0.4 -1.38 -2.72 -1.42 -2.9 c-0.04 -0.08 0.26 -0.22 0.3 -0.28 c0.96 -0.86 1.82 -1.74 2 -3.08 c0.2 -1.32 -0.1 -2.76 -0.96 -3.82 c-0.66 -0.78 -1.52 -1.24 -2.54 -1.3 c-0.62 -0.04 -1.22 0.02 -1.84 0 c-0.54 -0.02 -0.92 -0.02 -1.6 -0.02 c-0.32 0 -0.52 0.18 -0.54 0.52 l0 0.24 c-0.04 1.54 0 3.08 0.02 4.6 c0 2.32 -0.04 8.44 -0.04 9.32 c0 0.26 0.04 0.32 0.28 0.32 c0.14 0 0.3 0.02 0.44 0.02 c0.56 0 0.9 -0.02 1.48 -0.02 c0.44 0 0.28 -0.72 0.28 -1.5 z M49.632 10.7 l0.02 -2.02 c0.02 -0.3 -0.08 -0.9 0.2 -1.12 c0.38 -0.28 1.16 0 1.5 0.24 c1 0.68 0.92 2.36 0.38 3.3 c-0.26 0.44 -0.7 0.7 -1.2 0.84 c-0.3 0.08 -0.86 0.18 -0.88 -0.3 c0 -0.32 -0.02 -0.94 -0.02 -0.94 z M60.30500000000001 19.84 c0.06 0.02 0.24 0.02 0.42 0.02 c0.4 0 0.52 -1.44 0.56 -1.74 c0.02 -0.24 0.08 -0.26 0.28 -0.3 c1 -0.12 1.5 -0.04 2.5 -0.02 c0.22 0 0.34 0.1 0.4 0.28 l0.14 0.46 c0.12 0.34 0.22 0.76 0.34 1.1 c0.08 0.24 0.1 0.22 0.34 0.22 c0.32 0 1.48 0 1.82 -0.02 c0.46 0 0.14 -0.94 0.08 -1.1 c-0.18 -0.56 -0.22 -1.14 -0.4 -1.7 c-0.08 -0.24 -2.36 -11.06 -2.46 -11.66 c-0.14 -0.36 -0.02 -0.38 -0.34 -0.38 c-0.68 0 -1.4 0.04 -2.1 0 c-0.28 0 -0.26 0.08 -0.3 0.38 c-0.04 0.28 -0.76 3.46 -1.04 4.78 c-0.36 1.66 -0.68 3.26 -1.08 4.9 c-0.14 0.58 -1.1 4.76 -0.98 4.78 c0.06 0.04 0.16 0.02 0.24 0.02 c0.5 0 0.96 0 1.58 -0.02 z M62.925000000000004 15.3 l-0.42 0 c-0.56 0 -0.58 0 -0.44 -0.58 c0.1 -0.44 0.64 -2.82 0.76 -3.4 c0.02 -0.04 0.06 -0.08 0.08 -0.08 c0.04 0 0.08 0.04 0.1 0.06 c0.08 0.24 0.16 0.84 0.24 1.08 c0.18 0.76 0.3 1.4 0.48 2.22 c0.18 0.72 0.1 0.72 -0.26 0.72 c-0.18 0 -0.36 -0.02 -0.54 -0.02 z M70.458 6.960000000000001 c-0.02 1.24 0.1 10.3 0.08 10.96 c0 0.62 0 1.24 0.02 1.86 c0 0.1 0.06 0.2 0.16 0.2 c1.4 0.06 2.78 -0.06 4.18 -0.04 c0.46 0.02 0.92 0 1.36 0 c0.44 -0.02 0.48 -0.2 0.46 -0.56 c-0.02 -0.56 -0.02 -1.06 -0.02 -1.6 c-0.02 -0.28 -0.18 -0.38 -0.42 -0.38 c-0.82 0.02 -1.64 -0.02 -2.46 0.02 c-0.14 0.02 -0.28 0.02 -0.42 0.02 c-0.24 -0.02 -0.3 -0.08 -0.32 -0.34 l0 -0.3 c-0.06 -1.66 0.06 -3.38 0.06 -5.04 c-0.02 -1.4 0 -2.66 -0.02 -3.9 c0 -0.54 0 -1.08 -0.02 -1.6 c-0.02 -0.32 0 -0.66 -0.08 -0.98 c-0.04 -0.12 -0.1 -0.28 -0.24 -0.28 l-1.88 0 c-0.32 0 -0.42 0.22 -0.44 0.54 l0 1.42 z M85.964 6.539999999999999 c0 0.96 -0.04 11.28 0 12.2 c0.02 0.22 0.02 0.44 0.02 0.66 c0 0.16 0.1 0.26 0.24 0.32 c0.12 0.04 0.28 0.08 0.4 0.08 c0.58 -0.06 1.2 0 1.8 -0.02 c1.04 0.08 1.98 -0.16 2.88 -0.64 c0.84 -0.48 1.3 -1.34 1.62 -2.24 c0.26 -0.76 0.22 -1.66 0.08 -2.44 c-0.12 -0.7 -0.44 -1.38 -0.86 -1.94 c-0.06 -0.08 -0.92 -0.62 -0.88 -0.66 c0.52 -0.74 1.26 -1.36 1.36 -2.28 c0.08 -0.8 -0.1 -1.62 -0.38 -2.36 c-0.18 -0.48 -0.42 -0.94 -0.8 -1.3 c-0.64 -0.6 -1.6 -0.86 -2.44 -0.94 c-0.86 -0.08 -1.66 -0.02 -2.52 -0.06 c-0.3 0 -0.44 0.12 -0.44 0.44 c0 0.42 -0.08 0.76 -0.08 1.18 z M88.424 10.18 c-0.02 -0.22 0 -1.98 -0.04 -2.64 c-0.02 -0.24 0.12 -0.36 0.38 -0.3 c0.2 0.04 0.36 0.06 0.52 0.18 c0.5 0.38 0.88 0.84 0.9 1.48 c0 0.32 0 0.64 -0.12 0.94 c-0.14 0.36 -0.34 0.64 -0.7 0.82 c-0.24 0.12 -0.46 0.26 -0.7 0.36 c-0.12 0.04 -0.24 -0.02 -0.26 -0.14 c0 -0.24 0.02 -0.7 0.02 -0.7 z M90.424 15.48 c0 0.1 -0.02 0.28 -0.02 0.46 c-0.02 0.6 -0.8 1.36 -1.7 1.38 c-0.06 0 -0.16 -0.06 -0.18 -0.12 c-0.04 -0.12 -0.08 -0.26 -0.08 -0.4 c-0.02 -0.62 0 -1.22 0 -1.88 c0.06 -0.42 0.02 -0.86 0.02 -1.3 c0.02 -0.34 0.1 -0.4 0.42 -0.46 c0.48 -0.06 0.92 0.14 1.14 0.52 c0.26 0.46 0.36 0.96 0.4 1.48 l0 0.32 z M96.25699999999999 15.9 l-0.02 0 c0 0.5 -0.02 1.02 0 1.54 c0.02 0.64 0.06 1.28 0.1 1.92 c0 0.22 0.06 0.28 0.26 0.32 c0.42 0.1 0.82 0.12 1.24 0.12 c1.08 -0.04 2.16 0.04 3.24 0 c0.44 -0.02 0.64 0.02 1.08 -0.06 c0.4 -0.08 0.54 -0.3 0.54 -0.9 c-0.04 -0.38 -0.02 -0.54 -0.02 -1 c0 -0.66 -0.46 -0.88 -0.86 -0.86 c-0.28 0.02 -1.62 -0.02 -2.16 -0.02 c-0.9 0.02 -0.76 0.14 -0.76 -0.8 c0 -0.76 0.02 -1.74 0.02 -2.52 c0 -0.42 0.04 -0.56 0.44 -0.56 l2.5 0 c0.4 0.06 0.68 -0.22 0.68 -0.64 s0.04 -0.44 0.04 -0.86 l-0.06 -0.6 c-0.04 -0.34 -0.16 -0.46 -0.5 -0.46 c-0.22 0 -0.44 0.02 -0.66 0.04 c-0.86 0.06 -1.26 -0.06 -2.1 0 c-0.28 0 -0.32 -0.04 -0.34 -0.3 c-0.08 -0.78 0 -1.64 0.08 -2.42 c0.02 -0.32 0.1 -0.38 0.4 -0.4 l2.82 -0.02 c0.38 -0.04 0.5 -0.02 0.48 -0.4 c-0.04 -0.58 0.02 -1.18 -0.04 -1.76 c-0.04 -0.32 -0.14 -0.38 -0.5 -0.38 c-0.6 0.02 -0.74 0.02 -1.34 0.06 c-0.6 0.02 -3 0.02 -3.58 0.02 c-0.84 0 -0.9 -0.06 -0.92 0.96 c-0.04 0.8 -0.02 1.62 -0.02 2.44 c0 1.4 -0.08 6.42 -0.04 7.54 z M107.65 19.84 c0.06 0.02 0.24 0.02 0.42 0.02 c0.4 0 0.52 -1.44 0.56 -1.74 c0.02 -0.24 0.08 -0.26 0.28 -0.3 c1 -0.12 1.5 -0.04 2.5 -0.02 c0.22 0 0.34 0.1 0.4 0.28 l0.14 0.46 c0.12 0.34 0.22 0.76 0.34 1.1 c0.08 0.24 0.1 0.22 0.34 0.22 c0.32 0 1.48 0 1.82 -0.02 c0.46 0 0.14 -0.94 0.08 -1.1 c-0.18 -0.56 -0.22 -1.14 -0.4 -1.7 c-0.08 -0.24 -2.36 -11.06 -2.46 -11.66 c-0.14 -0.36 -0.02 -0.38 -0.34 -0.38 c-0.68 0 -1.4 0.04 -2.1 0 c-0.28 0 -0.26 0.08 -0.3 0.38 c-0.04 0.28 -0.76 3.46 -1.04 4.78 c-0.36 1.66 -0.68 3.26 -1.08 4.9 c-0.14 0.58 -1.1 4.76 -0.98 4.78 c0.06 0.04 0.16 0.02 0.24 0.02 c0.5 0 0.96 0 1.58 -0.02 z M110.27 15.3 l-0.42 0 c-0.56 0 -0.58 0 -0.44 -0.58 c0.1 -0.44 0.64 -2.82 0.76 -3.4 c0.02 -0.04 0.06 -0.08 0.08 -0.08 c0.04 0 0.08 0.04 0.1 0.06 c0.08 0.24 0.16 0.84 0.24 1.08 c0.18 0.76 0.3 1.4 0.48 2.22 c0.18 0.72 0.1 0.72 -0.26 0.72 c-0.18 0 -0.36 -0.02 -0.54 -0.02 z M117.803 8.28 c0 2.02 0.02 4.06 0.06 6.06 c0.02 1.22 0 2.6 0.58 3.72 c0.74 1.44 2.38 2.08 3.96 1.98 c1.08 -0.08 2.08 -0.36 2.86 -1.16 c1.32 -1.42 1.06 -3.64 1.08 -5.46 c0.04 -2.62 0.1 -5.06 0.1 -7.7 c0 -0.44 -0.14 -0.68 -0.58 -0.7 c-0.54 -0.02 -1.08 0 -1.62 0.04 c-0.22 0 -0.4 0.2 -0.4 0.44 c0.02 1.92 0.06 3.86 0.04 5.8 c-0.02 1.66 0.2 3.5 -0.42 5.08 c-0.24 0.58 -0.78 1.02 -1.42 1.02 c-1.6 -0.04 -1.54 -1.94 -1.6 -3.06 c-0.12 -2.44 0.06 -4.94 0.12 -7.38 c0 -0.46 0 -0.92 0.02 -1.38 c0.02 -0.24 0.06 -0.54 -0.26 -0.56 l-0.36 0 c-0.5 0.04 -1 -0.02 -1.5 0 c-0.48 0.04 -0.64 0.18 -0.64 0.66 c0 0.86 -0.02 1.74 -0.02 2.6 z M132.09599999999998 17.82 c0.02 0.62 0.02 1.24 0.04 1.86 c0 0.28 0.02 0.32 0.3 0.32 l1.8 0 c0.38 0 0.3 -0.64 0.28 -0.98 l0.06 -11.2 c0 -0.3 0.1 -0.4 0.5 -0.4 l1.76 0 c0.42 0 0.32 -0.72 0.32 -1.22 c0 -0.44 0.16 -1.2 -0.32 -1.2 c-0.34 0 -3.6 0 -4.94 0.02 c-0.66 0 -1.2 -0.02 -1.86 -0.02 c-0.5 0 -0.48 0.4 -0.48 1.28 c0 0.56 -0.02 1.12 0.46 1.12 c0.28 0 1.42 0 1.74 0.02 c0.2 0 0.34 0.06 0.38 0.28 c0 0.06 0.02 0.12 0.02 0.18 c0 1.44 -0.1 8.14 -0.06 9.94 z M143.909 13.879999999999999 l0.02 5.84 c0 0.22 0.2 0.3 0.36 0.3 l1.84 0 c0.34 0 0.34 -0.3 0.34 -0.44 c0 -1.88 0 -3.9 0.08 -5.8 c0 -0.32 0.04 -0.62 0.2 -0.92 c0.18 -0.3 2.84 -6.24 3.14 -7.22 c0.04 -0.14 0.12 -0.38 -0.02 -0.5 c-0.24 -0.22 -1.2 -0.12 -1.78 -0.12 c-0.36 0 -0.58 0.14 -0.74 0.5 c-0.68 1.58 -1.38 3.14 -2.08 4.72 c-0.06 0.14 -0.14 0.14 -0.24 0 c-0.22 -0.36 -1.64 -3.88 -1.86 -4.66 c-0.04 -0.1 -0.06 -0.2 -0.12 -0.28 c-0.28 -0.32 -0.74 -0.28 -1.12 -0.28 c-0.5 0 -0.86 0.02 -1.34 0.02 c-0.32 0 -0.34 0.3 -0.28 0.56 c0.02 0.1 0.08 0.2 0.12 0.28 c0.76 1.44 2.9 6.2 3.28 7.1 c0.2 0.42 0.18 0.44 0.2 0.9 z" fill="#0D7377"></path></g></svg>